<svg xmlns="http://www.w3.org/2000/svg" viewBox="0 0 283.9 98.64" width="283.9" height="98.64"><defs><style>.cls-1{fill:#fff;}</style></defs><title>Asset 2</title><g id="Layer_2" data-name="Layer 2"><g id="Layer_1-2" data-name="Layer 1"><path class="cls-1" d="M63.8,33.24c13.4,4.5,30.8,7.9,48,5.2-5.4-3.2-7.4-6.2-8.8-8.9-6.6-13.4,4.5-28.3,18.3-29.5,2-.2,7,.3,8.3,1.9-9.2-.7-14.5,1.8-18,7a17.44,17.44,0,0,0-2.3,14.6c2.2,7.1,11.2,11.6,17.5,11,4.8-.4,9.1-2.2,13.2-3.7,8.3-3.1,15.5-6.5,25.2-8.6,20.9-4.5,45.5,1.9,58.2,16.8-75.7-36-79.8,36.2-159.6-5.8"/><path class="cls-1" d="M0,73.34v-.1c0-14,10.6-25.5,25.7-25.5,9.3,0,14.8,3.1,19.4,7.6l-6.9,8c-3.8-3.4-7.7-5.6-12.6-5.6-8.3,0-14.3,6.9-14.3,15.3v.1c0,8.4,5.8,15.5,14.3,15.5,5.6,0,9.1-2.3,12.9-5.8l6.9,7c-5.1,5.4-10.7,8.8-20.2,8.8A24.87,24.87,0,0,1,0,73.34Z"/><path class="cls-1" d="M49.9,46.44H60.6v19c2.5-3.2,5.6-6.1,11.1-6.1,8.1,0,12.8,5.3,12.8,14v24.4H73.8v-21c0-5.1-2.4-7.7-6.5-7.7s-6.7,2.6-6.7,7.7v21H49.9Z"/><path class="cls-1" d="M88.9,79.14V79c0-10.8,7.7-19.6,18.6-19.6,12.6,0,18.4,9.8,18.4,20.5,0,.8-.1,1.8-.1,2.8H99.6c1.1,4.9,4.4,7.4,9.2,7.4,3.6,0,6.2-1.1,9.1-3.9l6.1,5.4c-3.5,4.4-8.6,7-15.4,7C97.3,98.64,88.9,90.74,88.9,79.14ZM115.5,76c-.6-4.8-3.4-8-8-8-4.4,0-7.3,3.2-8.2,8Z"/><path class="cls-1" d="M130.9,60h10.7v7.6c2.2-5.2,5.7-8.6,12-8.3v11.2H153c-7.1,0-11.5,4.3-11.5,13.3v13.9H130.8V60Z"/><path class="cls-1" d="M157.2,60H168l6.1,22.9,7.1-23h9.2L197.6,83l6.2-22.9h10.6l-11.8,38H193l-7.2-23.2-7.4,23.2h-9.6Z"/><path class="cls-1" d="M214.3,79.14V79c0-10.8,7.7-19.6,18.6-19.6,12.6,0,18.4,9.8,18.4,20.5,0,.8-.1,1.8-.1,2.8H225c1.1,4.9,4.4,7.4,9.2,7.4,3.6,0,6.2-1.1,9.1-3.9l6.1,5.4c-3.5,4.4-8.6,7-15.4,7C222.6,98.64,214.3,90.74,214.3,79.14ZM240.9,76c-.6-4.8-3.5-8-8-8s-7.3,3.2-8.2,8Z"/><path class="cls-1" d="M255,46.44h10.7v51.4H255Z"/><path class="cls-1" d="M273.2,46.44h10.7v51.4H273.2Z"/></g></g></svg>